<svg xmlns="http://www.w3.org/2000/svg" xmlns:xlink="http://www.w3.org/1999/xlink" x="0" y="0" enable-background="new 0 0 100 100" version="1.1" viewBox="0 0 100 100" xml:space="preserve"><g id="subversion"><g><g><g><path d="M67.1,52.3H51.1c-1.2,0-2.3-1-2.3-2.3c0-1.2,1-2.3,2.3-2.3h15.1l12.5-13.2c0.4-0.4,1-0.7,1.6-0.7H97 c1.2,0,2.3,1,2.3,2.3s-1,2.3-2.3,2.3H81.2L68.8,51.6C68.3,52,67.7,52.3,67.1,52.3L67.1,52.3z"/></g><g><path d="M89,47.2c-0.6,0-1.2-0.2-1.6-0.7c-0.9-0.9-0.9-2.3,0-3.2l7.1-7.1l-7.1-7.1c-0.9-0.9-0.9-2.3,0-3.2 c0.9-0.9,2.3-0.9,3.2,0l8.7,8.7c0.9,0.9,0.9,2.3,0,3.2l-8.7,8.7C90.2,46.9,89.6,47.2,89,47.2L89,47.2z"/></g><g><path d="M97,66.1H80.3c-0.6,0-1.2-0.3-1.6-0.7L66.2,52.2H51.1c-1.2,0-2.3-1-2.3-2.3c0-1.2,1-2.3,2.3-2.3h16.1 c0.6,0,1.2,0.3,1.6,0.7l12.5,13.2H97c1.2,0,2.3,1,2.3,2.3C99.3,65.1,98.3,66.1,97,66.1L97,66.1z"/></g><g><path d="M89,74.8c-0.6,0-1.2-0.2-1.6-0.7c-0.9-0.9-0.9-2.3,0-3.2l7.1-7.1l-7.1-7.1c-0.9-0.9-0.9-2.3,0-3.2 c0.9-0.9,2.3-0.9,3.2,0l8.7,8.7c0.9,0.9,0.9,2.3,0,3.2l-8.7,8.7C90.2,74.6,89.6,74.8,89,74.8L89,74.8z"/></g></g><g><path d="M20.4,64.6c-9.3,0-17.2-2.4-20.3-5.7c0,0,0,0-0.1,0.1v5.4c2.8,3.6,11,6.3,20.8,6.3c9.6,0,17.8-2.6,20.7-6.2v-5.6 c-0.1-0.1-0.2-0.3-0.4-0.4C38.3,62,30.1,64.6,20.4,64.6z"/><path d="M41.1,46.1c-1,1.3-2.7,2.4-4.9,3.4c-4,1.7-9.6,2.8-15.9,2.8c-6.3,0-11.9-1.1-15.9-2.8c-1.9-0.8-3.5-1.8-4.5-2.9 c0,0,0,0-0.1,0.1V52c0.1,0.1,0.1,0.2,0.2,0.3c1,1.2,2.6,2.3,4.7,3.2c4,1.7,9.6,2.8,15.9,2.8s11.9-1.1,15.9-2.8 c1.8-0.8,3.3-1.7,4.3-2.8c0.2-0.2,0.4-0.4,0.5-0.6v-5.6C41.4,46.3,41.2,46.2,41.1,46.1z"/><path d="M5.1,43.1c3.8,1.8,9.3,2.9,15.6,2.9c6.3,0,11.9-1.2,15.7-3c1.9-0.9,3.3-2,4.1-3.2c0.5-0.7,0.8-1.5,0.8-2.3 c0-4.7-9.2-8.5-20.5-8.5c-11.3,0-20.5,3.8-20.5,8.5c0,0.7,0.2,1.3,0.5,1.9C1.4,40.8,3,42,5.1,43.1z"/></g></g></g></svg>