<svg xmlns="http://www.w3.org/2000/svg" xmlns:xlink="http://www.w3.org/1999/xlink" x="0" y="0" enable-background="new 0 0 100 100" version="1.1" viewBox="0 0 100 100" xml:space="preserve"><g id="powershell"><g><g><g><path d="M92.9,83.1H47.3c-3.9,0-7.1-3.2-7.1-7.1c0-3.9,3.2-7.1,7.1-7.1h45.5c3.9,0,7.1,3.2,7.1,7.1 C100,79.9,96.8,83.1,92.9,83.1L92.9,83.1z"/></g></g><g><g><path d="M7.1,83.1c-1.8,0-3.7-0.7-5.1-2.1c-2.8-2.8-2.8-7.3,0-10.1L22.9,50L2.1,29.1c-2.8-2.8-2.8-7.3,0-10.1 c2.8-2.8,7.3-2.8,10.1,0L38.1,45c2.8,2.8,2.8,7.3,0,10.1L12.2,81C10.8,82.4,9,83.1,7.1,83.1L7.1,83.1z"/></g></g></g></g></svg>