<svg xmlns="http://www.w3.org/2000/svg" xmlns:xlink="http://www.w3.org/1999/xlink" x="0" y="0" enable-background="new 0 0 100 100" version="1.1" viewBox="0 0 100 100" xml:space="preserve"><g id="dsc_x5F_resource"><g><g><path d="M95.8,100H4.2C1.9,100,0,98.1,0,95.8V4.2C0,1.9,1.9,0,4.2,0h91.6c2.3,0,4.2,1.9,4.2,4.2v91.6C100,98.1,98.1,100,95.8,100 L95.8,100z M8.4,91.6h83.2V8.4H8.4V91.6L8.4,91.6z"/></g><g><g><g><path d="M75.6,70.4H48.5c-2.3,0-4.2-1.9-4.2-4.2c0-2.3,1.9-4.2,4.2-4.2h27.1c2.3,0,4.2,1.9,4.2,4.2 C79.8,68.5,77.9,70.4,75.6,70.4L75.6,70.4z"/></g></g><g><g><path d="M24.6,70.4c-1.1,0-2.2-0.4-3-1.2c-1.7-1.7-1.7-4.3,0-6L34,50.7L21.6,38.3c-1.7-1.7-1.7-4.3,0-6c1.7-1.7,4.3-1.7,6,0 L43,47.7c1.7,1.7,1.7,4.3,0,6L27.6,69.1C26.8,70,25.7,70.4,24.6,70.4L24.6,70.4z"/></g></g></g></g></g></svg>