<svg xmlns="http://www.w3.org/2000/svg" xmlns:xlink="http://www.w3.org/1999/xlink" x="0" y="0" enable-background="new 0 0 100 100" version="1.1" viewBox="0 0 100 100" xml:space="preserve"><g id="route"><g><g><path d="M94.4,78H62.9c-1.4,0-2.8-0.7-3.5-1.9l-8.3-12.6c-1.3-2-0.7-4.6,1.2-5.9c2-1.3,4.6-0.7,5.9,1.2l7,10.7h29.2 c2.3,0,4.2,1.9,4.2,4.2C98.6,76.1,96.8,78,94.4,78L94.4,78z"/></g><g><path d="M42.3,43.5c-1.4,0-2.8-0.7-3.6-2l-6.7-11H4.2c-2.3,0-4.2-1.9-4.2-4.2C0,23.9,1.9,22,4.2,22h30.2c1.5,0,2.9,0.8,3.6,2 L46,37.1c1.2,2,0.6,4.6-1.4,5.8C43.8,43.3,43.1,43.5,42.3,43.5L42.3,43.5z"/></g><g><path d="M34.4,78H4.2C1.9,78,0,76.1,0,73.7c0-2.3,1.9-4.2,4.2-4.2H32l27.3-45.5c0.8-1.3,2.1-2.1,3.6-2.1h31.5 c2.3,0,4.2,1.9,4.2,4.2c0,2.3-1.9,4.2-4.2,4.2H65.3L38.1,75.9C37.3,77.2,35.9,78,34.4,78L34.4,78z"/></g><g><path d="M79.4,47c-1.1,0-2.2-0.4-3-1.2c-1.7-1.6-1.7-4.3,0-6l13.4-13.4L76.4,13c-1.7-1.7-1.7-4.3,0-6c1.7-1.7,4.3-1.7,6,0 l16.4,16.4c1.7,1.7,1.7,4.3,0,6L82.4,45.7C81.6,46.6,80.5,47,79.4,47L79.4,47z"/></g><g><path d="M79.4,94.3c-1.1,0-2.2-0.4-3-1.2c-1.7-1.6-1.7-4.3,0-6l13.4-13.4L76.4,60.2c-1.7-1.7-1.7-4.3,0-6c1.7-1.7,4.3-1.7,6,0 l16.4,16.4c1.7,1.7,1.7,4.3,0,6L82.4,93C81.6,93.9,80.5,94.3,79.4,94.3L79.4,94.3z"/></g></g></g></svg>