<svg xmlns="http://www.w3.org/2000/svg" xmlns:xlink="http://www.w3.org/1999/xlink" x="0" y="0" enable-background="new 0 0 100 100" version="1.1" viewBox="0 0 100 100" xml:space="preserve"><g id="chefspec"><g><path d="M50,100C22.4,100,0,77.6,0,50C0,22.4,22.4,0,50,0c27.6,0,50,22.4,50,50C100,77.6,77.6,100,50,100L50,100z M50,8.5 C27.1,8.5,8.5,27.1,8.5,50c0,22.9,18.6,41.5,41.5,41.5c22.9,0,41.5-18.6,41.5-41.5C91.5,27.1,72.9,8.5,50,8.5L50,8.5z"/><polygon points="34.3 32.6 34.3 32.5 23 43.8 50.3 71 61.5 59.8 77.6 43.8 66.3 32.5 66.3 32.5 34.3 32.5"/></g></g></svg>