<svg xmlns="http://www.w3.org/2000/svg" xmlns:xlink="http://www.w3.org/1999/xlink" x="0" y="0" enable-background="new 0 0 100 100" version="1.1" viewBox="0 0 100 100" xml:space="preserve"><g id="controls"><g><g><path d="M73,93.8H27c-1.4,0-2.7-0.8-3.4-2L0.5,52c-0.7-1.2-0.7-2.7,0-4l23-39.9c0.7-1.2,2-2,3.4-2h46c1.4,0,2.7,0.8,3.4,2 l23,39.9c0.7,1.2,0.7,2.7,0,4l-23,39.9C75.7,93.1,74.4,93.8,73,93.8L73,93.8z M29.3,85.9h41.4L91.4,50L70.7,14.1H29.3L8.6,50 L29.3,85.9L29.3,85.9z"/></g><g><path d="M50,73.8c-13.1,0-23.8-10.7-23.8-23.8S36.9,26.2,50,26.2c13.1,0,23.8,10.7,23.8,23.8S63.1,73.8,50,73.8L50,73.8z M50,34.1c-8.8,0-15.9,7.1-15.9,15.9S41.2,65.9,50,65.9c8.8,0,15.9-7.1,15.9-15.9S58.8,34.1,50,34.1L50,34.1z"/></g></g></g></svg>