<svg xmlns="http://www.w3.org/2000/svg" xmlns:xlink="http://www.w3.org/1999/xlink" x="0" y="0" enable-background="new 0 0 100 100" version="1.1" viewBox="0 0 100 100" xml:space="preserve"><g id="ohai"><g><g><path d="M95.8,100H4.2C1.9,100,0,98.1,0,95.8V4.2C0,1.9,1.9,0,4.2,0h91.6c2.3,0,4.2,1.9,4.2,4.2v91.6C100,98.1,98.1,100,95.8,100 L95.8,100z M8.4,91.6h83.2V8.4H8.4V91.6L8.4,91.6z"/></g><g><g><path d="M24.4,80c-1.3,0-2.4-1.1-2.4-2.4V55.8c0-1.3,1.1-2.4,2.4-2.4c1.3,0,2.4,1.1,2.4,2.4v21.8C26.8,78.9,25.7,80,24.4,80 L24.4,80z"/></g><g><path d="M34.8,80c-1.3,0-2.4-1.1-2.4-2.4V34.7c0-1.3,1.1-2.4,2.4-2.4c1.3,0,2.4,1.1,2.4,2.4v42.9C37.2,78.9,36.1,80,34.8,80 L34.8,80z"/></g><g><path d="M45.1,80c-1.3,0-2.4-1.1-2.4-2.4V24.5c0-1.3,1.1-2.4,2.4-2.4c1.3,0,2.4,1.1,2.4,2.4v53.1C47.5,78.9,46.4,80,45.1,80 L45.1,80z"/></g><g><path d="M55.5,80c-1.3,0-2.4-1.1-2.4-2.4V43.1c0-1.3,1.1-2.4,2.4-2.4c1.3,0,2.4,1.1,2.4,2.4v34.5C57.9,78.9,56.8,80,55.5,80 L55.5,80z"/></g><g><path d="M76.2,80c-1.3,0-2.4-1.1-2.4-2.4v-12c0-1.3,1.1-2.4,2.4-2.4c1.3,0,2.4,1.1,2.4,2.4v12C78.6,78.9,77.5,80,76.2,80 L76.2,80z"/></g><g><path d="M65.8,80c-1.3,0-2.4-1.1-2.4-2.4V24.5c0-1.3,1.1-2.4,2.4-2.4c1.3,0,2.4,1.1,2.4,2.4v53.1C68.2,78.9,67.2,80,65.8,80 L65.8,80z"/></g></g></g></g></svg>